REM GENRE Hip-Hop
REM DATE 2007
REM DISCID CE0D000E
REM COMMENT "ExactAudioCopy v0.99pb4"
PERFORMER "Kanye West"
TITLE "Graduation"
FILE "Kanye West - Graduation.wav" WAVE
  TRACK 01 AUDIO
    TITLE "Good Morning"
    PERFORMER "Kanye West"
    INDEX 01 00:00:00
  TRACK 02 AUDIO
    TITLE "Champion"
    PERFORMER "Kanye West"
    INDEX 00 03:15:07
    INDEX 01 03:15:10
  TRACK 03 AUDIO
    TITLE "Stronger"
    PERFORMER "Kanye West"
    INDEX 00 06:02:55
    INDEX 01 06:02:62
  TRACK 04 AUDIO
    TITLE "I Wonder"
    PERFORMER "Kanye West"
    INDEX 01 11:14:52
  TRACK 05 AUDIO
    TITLE "Good Life (feat. T-Pain)"
    PERFORMER "Kanye West"
    INDEX 01 15:18:10
  TRACK 06 AUDIO
    TITLE "Can't Tell Me Nothing"
    PERFORMER "Kanye West"
    INDEX 00 18:45:10
    INDEX 01 18:45:12
  TRACK 07 AUDIO
    TITLE "Barry Bonds (feat. Lil Wayne)"
    PERFORMER "Kanye West"
    INDEX 01 23:16:57
  TRACK 08 AUDIO
    TITLE "Drunk and Hot Girls (feat. Mos Def)"
    PERFORMER "Kanye West"
    INDEX 01 26:41:05
  TRACK 09 AUDIO
    TITLE "Flashing Lights (feat. Dwele)"
    PERFORMER "Kanye West"
    INDEX 01 31:54:22
  TRACK 10 AUDIO
    TITLE "Everything I Am (feat. Scratches by DJ Premiere)"
    PERFORMER "Kanye West"
    INDEX 01 35:51:60
  TRACK 11 AUDIO
    TITLE "The Glory"
    PERFORMER "Kanye West"
    INDEX 01 39:39:52
  TRACK 12 AUDIO
    TITLE "Homecoming"
    PERFORMER "Kanye West"
    INDEX 01 43:12:30
  TRACK 13 AUDIO
    TITLE "Big Brother"
    PERFORMER "Kanye West"
    INDEX 01 46:35:67
